<svg xmlns="http://www.w3.org/2000/svg" width="256" height="256"><path fill="#1976D2" fill-opacity=".016" fill-rule="evenodd" d="M0 128.004v128.004l128.25-.254 128.25-.254.254-127.75L257.008 0H0v128.004m.485.496c0 70.4.119 99.053.265 63.672.146-35.38.146-92.98 0-128C.604 29.153.485 58.1.485 128.5"/><path fill="#1976D2" fill-opacity=".267" fill-rule="evenodd" d="M23.241 106.75c.38 66.386.194 64.388 7.382 79.108 6.583 13.482 19.49 23.423 35.377 27.248 7.976 1.92 25.161 1.648 32.5-.515 9.112-2.686 17.039-7.335 23.156-13.582l5.525-5.643 6.16 6.142c7.65 7.629 16.371 12.065 27.732 14.107 27.331 4.912 53.013-6.849 63.59-29.12 6.155-12.962 6.3-14.783 6.32-79.245L231 47h-40.923l-.288 57.25c-.287 56.849-.304 57.279-2.495 61.374-4.453 8.324-10.025 10.998-21.23 10.187-7.032-.509-11.907-3.728-15.323-10.119-2.236-4.182-2.242-4.322-2.53-61.442L147.923 47h-40.802l-.311 56.323-.31 56.322-3 5.851C99.628 173.047 94.583 176 85.555 176c-9.29 0-14.246-2.883-18.055-10.5l-3-6-.304-56.25L63.893 47H22.898l.343 59.75"/><path fill="#1976D2" fill-opacity=".315" fill-rule="evenodd" d="M23.402 48.394c-.294.767-.368 27.204-.165 58.75.354 54.97.459 57.677 2.514 65.063 3.092 11.11 6.953 18.371 13.497 25.383 10.409 11.156 23.855 16.368 42.292 16.395 17.567.026 28.969-4.286 39.509-14.942l6.549-6.62 3.139 4.164c3.76 4.988 13.131 11.447 21.027 14.493 8.032 3.098 26.06 3.827 36.606 1.481 20.29-4.514 33.94-17.762 40.247-39.061 1.598-5.395 1.812-12.082 2.124-66.271l.347-60.271-20.294.271-20.294.271-.5 57.5-.5 57.5-2.489 4.348c-3.678 6.424-9.421 9.446-17.952 9.446-8.654 0-14.113-2.83-17.907-9.283L148.5 162.5 148 105l-.5-57.5-20.211-.271-20.211-.27-.289 56.77c-.283 55.515-.336 56.873-2.42 61.379-4.062 8.785-13.514 13.042-24.084 10.847-6.492-1.347-11.311-5.228-13.932-11.218-1.72-3.934-1.874-8.294-2.142-60.987L63.922 47H43.93c-16.174 0-20.095.266-20.528 1.394"/><path fill="#1976D2" fill-opacity=".984" fill-rule="evenodd" d="m24.213 108.25.314 60.25 2.702 8c2.85 8.443 6.367 14.693 11.656 20.716 14.712 16.756 47.734 21.81 69.954 10.706 5.863-2.929 13.332-9.204 16.427-13.8l1.602-2.379 5.66 6.113c7.065 7.632 17.862 13.354 28.624 15.171 8.756 1.478 22.954.746 30.848-1.59 18.289-5.413 31.341-19.49 36.645-39.525 1.481-5.592 1.748-13.925 2.091-65.162l.393-58.75h-40.036l-.297 56.25c-.33 62.765-.178 61.366-7.386 67.695-6.195 5.439-18.455 6.549-25.687 2.325-4.548-2.656-8.544-8.891-9.716-15.156-.595-3.185-1.007-26.993-1.007-58.25V48h-40v54.818c0 59.721-.165 61.698-5.621 67.547-7.801 8.361-23.126 8.821-31.016.931-6.245-6.245-6.363-7.515-6.363-68.478V48H23.899l.314 60.25"/></svg>