<?xml version="1.0" encoding="utf-8"?>
<!-- Generator: Adobe Illustrator 28.0.0, SVG Export Plug-In . SVG Version: 6.00 Build 0)  -->
<svg version="1.1" id="Ebene_1" xmlns="http://www.w3.org/2000/svg" xmlns:xlink="http://www.w3.org/1999/xlink" x="0px" y="0px"
	 viewBox="0 0 600 200" style="enable-background:new 0 0 600 200;" xml:space="preserve">
<style type="text/css">
	.st0{enable-background:new    ;}
	.st1{fill:none;}
</style>
<g class="st0">
	<path d="M61.3,104.2V54.5h19.4v49.7c0,9.1,4.4,12.4,10.3,12.4c5.8,0,10.3-3.2,10.3-12.4V54.5h19.4v49.7c0,9.1,4.6,12.4,10.3,12.4
		c5.9,0,10.3-3.2,10.3-12.4V54.5h19.4v49.7c0,21-12.2,30.4-28.1,30.4c-9.5,0-17-3.7-21.7-10.8c-4.7,7.1-12.2,10.8-21.7,10.8
		C73.6,134.6,61.3,125.2,61.3,104.2z"/>
	<path d="M167.6,103.4c0-18,13.2-31.2,31.9-31.2s31.9,13.2,31.9,31.2s-13.2,31.2-31.9,31.2S167.6,121.4,167.6,103.4z M213.2,103.4
		c0-8.5-5.5-14.4-13.7-14.4s-13.7,5.9-13.7,14.4s5.5,14.4,13.7,14.4S213.2,111.9,213.2,103.4z"/>
	<path d="M237.8,99.3c0-18.5,10.8-27.1,26.6-27.1s26.5,8.5,26.6,27.2v0.4h-18v-0.5c0-7.9-3.6-10.3-8.6-10.3c-5,0-8.6,2.4-8.6,10.3
		V133h-18V99.3z"/>
	<path d="M297.4,47.8h18v50.9l18.8-25h22.3l-24.1,29l25.1,30.2h-22.8l-19.3-25.6V133h-18V47.8z"/>
	<path d="M363.8,54.5h30.8c21.4,0,30.8,11.6,30.8,27.6s-9.5,27.7-30.8,27.7h-11.4V133h-19.4V54.5z M395,91.8
		c8.3,0,10.8-4.1,10.8-9.7c0-5.5-2.5-9.6-10.8-9.6h-11.8v19.3H395z"/>
	<path d="M430.9,99.3c0-18.5,10.8-27.1,26.6-27.1c15.8,0,26.5,8.5,26.6,27.2v0.4h-18v-0.5c0-7.9-3.6-10.3-8.6-10.3
		c-5,0-8.6,2.4-8.6,10.3V133h-18V99.3z"/>
	<path d="M486.1,103.4c0-18,13.2-31.2,31.9-31.2S550,85.4,550,103.4s-13.2,31.2-31.9,31.2S486.1,121.4,486.1,103.4z M531.7,103.4
		c0-8.5-5.5-14.4-13.7-14.4s-13.7,5.9-13.7,14.4s5.5,14.4,13.7,14.4S531.7,111.9,531.7,103.4z"/>
</g>
<rect x="84" y="9" class="st1" width="50" height="32"/>
<rect x="201" y="127" class="st1" width="11" height="10"/>
<rect x="-18" y="349" class="st1" width="3" height="1"/>
</svg>
