<?xml version="1.0" encoding="utf-8"?>
<!-- Generator: Adobe Illustrator 28.0.0, SVG Export Plug-In . SVG Version: 6.00 Build 0)  -->
<svg version="1.1"
	 id="svg9" xmlns:svg="http://www.w3.org/2000/svg" xmlns:sodipodi="http://sodipodi.sourceforge.net/DTD/sodipodi-0.dtd" xmlns:inkscape="http://www.inkscape.org/namespaces/inkscape"
	 xmlns="http://www.w3.org/2000/svg" xmlns:xlink="http://www.w3.org/1999/xlink" x="0px" y="0px" viewBox="0 0 1024 1024"
	 style="enable-background:new 0 0 1024 1024;" xml:space="preserve">
<sodipodi:namedview  bordercolor="#000000" borderopacity="0.25" id="namedview9" inkscape:current-layer="svg9" inkscape:cx="76" inkscape:cy="104" inkscape:deskcolor="#d1d1d1" inkscape:pagecheckerboard="0" inkscape:pageopacity="0.0" inkscape:showpageshadow="2" inkscape:window-height="1387" inkscape:window-maximized="1" inkscape:window-width="2560" inkscape:window-x="2056" inkscape:window-y="25" inkscape:zoom="0.5" pagecolor="#ffffff">
	</sodipodi:namedview>
<g>
	<path d="M94,604V190h162v414c0,76,37,103,86,103c48,0,86-27,86-103V190h162v414c0,76,38,103,86,103c49,0,86-27,86-103V190h162v414
		c0,175-102,253-234,253c-79,0-142-31-181-90c-39,59-102,90-181,90C196,857,94,779,94,604z"/>
</g>
</svg>
